<?xml version="1.0" encoding="UTF-8"?>
<!-- Generator: Adobe Illustrator 23.0.3, SVG Export Plug-In . SVG Version: 6.00 Build 0)  -->
<svg version="1.1" id="Layer_1" xmlns="http://www.w3.org/2000/svg" xmlns:xlink="http://www.w3.org/1999/xlink" x="0px" y="0px" viewBox="0 0 338 72" style="enable-background:new 0 0 338 72;" xml:space="preserve">
<style type="text/css">
	.st0{fill-rule:evenodd;clip-rule:evenodd;fill:#1F1F1F;}
	.st1{fill:#85BA32;}
	.st2{fill-rule:evenodd;clip-rule:evenodd;fill:#85BA32;}
	.st3{fill:#22419C;}
	.st4{fill-rule:evenodd;clip-rule:evenodd;fill:#22419C;}
</style>
<g>
	<g>
		<path class="st0" d="M91.7,51.8c0,0-0.1-0.1-0.1-0.1c0,0-0.1,0-0.1,0h-0.5c-0.1,0-0.1,0-0.2,0c-0.1,0-0.1,0-0.2,0.1    c0,0-0.1,0.1-0.1,0.2c0,0.1-0.1,0.1-0.1,0.2l-1.8,4.4h0l-1.7-4.4c0-0.1-0.1-0.2-0.1-0.2c0-0.1-0.1-0.1-0.1-0.2    c-0.1,0-0.1-0.1-0.2-0.1c-0.1,0-0.2,0-0.3,0h-0.5c-0.1,0-0.2,0-0.2,0.1c-0.1,0.1-0.1,0.1-0.1,0.3v5.6c0,0,0,0,0,0.1c0,0,0,0,0.1,0    c0,0,0.1,0,0.1,0c0.1,0,0.1,0,0.2,0c0.1,0,0.1,0,0.2,0c0.1,0,0.1,0,0.1,0c0,0,0.1,0,0.1,0c0,0,0,0,0-0.1v-5.3h0l2,5.3    c0,0,0,0,0,0.1c0,0,0,0,0.1,0c0,0,0.1,0,0.1,0c0,0,0.1,0,0.2,0c0.1,0,0.1,0,0.2,0c0,0,0.1,0,0.1,0c0,0,0.1,0,0.1,0c0,0,0,0,0-0.1    l2.1-5.3h0v5.3c0,0,0,0,0,0.1c0,0,0,0,0.1,0c0,0,0.1,0,0.1,0c0.1,0,0.1,0,0.2,0c0.1,0,0.1,0,0.2,0c0,0,0.1,0,0.1,0    c0,0,0.1,0,0.1,0c0,0,0,0,0-0.1v-5.6c0-0.1,0-0.1,0-0.2C91.8,51.9,91.7,51.8,91.7,51.8z M96.8,53.6c-0.1-0.1-0.3-0.2-0.5-0.3    c-0.2-0.1-0.5-0.1-0.8-0.1c-0.2,0-0.3,0-0.5,0c-0.2,0-0.3,0.1-0.4,0.1c-0.1,0-0.3,0.1-0.4,0.2c-0.1,0.1-0.2,0.1-0.2,0.1    c0,0-0.1,0.1-0.1,0.1c0,0,0,0.1,0,0.2c0,0,0,0.1,0,0.1c0,0,0,0.1,0,0.1s0,0,0,0.1c0,0,0,0,0.1,0c0,0,0.1,0,0.2-0.1    c0.1,0,0.2-0.1,0.3-0.1c0.1-0.1,0.2-0.1,0.4-0.1c0.2,0,0.3-0.1,0.5-0.1c0.2,0,0.3,0,0.4,0.1c0.1,0,0.2,0.1,0.3,0.2    c0.1,0.1,0.1,0.2,0.2,0.3c0,0.1,0.1,0.3,0.1,0.4v0.3h-0.6c-0.3,0-0.6,0-0.9,0.1c-0.3,0.1-0.5,0.1-0.7,0.3    c-0.2,0.1-0.3,0.3-0.4,0.4c-0.1,0.2-0.1,0.4-0.1,0.6c0,0.2,0,0.4,0.1,0.5c0.1,0.2,0.2,0.3,0.3,0.4c0.1,0.1,0.3,0.2,0.5,0.2    c0.2,0.1,0.4,0.1,0.6,0.1c0.3,0,0.5-0.1,0.7-0.2c0.2-0.1,0.4-0.3,0.6-0.5v0.4c0,0,0,0.1,0,0.1c0,0,0.1,0,0.1,0c0,0,0.1,0,0.2,0    c0.1,0,0.1,0,0.2,0c0,0,0.1,0,0.1,0c0,0,0,0,0-0.1v-2.8c0-0.3,0-0.5-0.1-0.7C97,53.9,96.9,53.8,96.8,53.6z M96.4,56.6    c-0.2,0.2-0.4,0.4-0.5,0.5c-0.2,0.1-0.4,0.2-0.6,0.2c-0.2,0-0.4-0.1-0.6-0.2c-0.1-0.1-0.2-0.3-0.2-0.5c0-0.1,0-0.2,0.1-0.3    c0-0.1,0.1-0.2,0.2-0.3c0.1-0.1,0.2-0.1,0.4-0.2c0.2,0,0.3-0.1,0.6-0.1h0.7V56.6z M99.9,53.3c0,0-0.1,0-0.1,0c0,0-0.1,0-0.2,0    c-0.1,0-0.1,0-0.2,0c0,0-0.1,0-0.1,0c0,0-0.1,0-0.1,0c0,0,0,0,0,0.1v4.2c0,0,0,0,0,0.1c0,0,0,0,0.1,0c0,0,0.1,0,0.1,0    c0,0,0.1,0,0.2,0c0.1,0,0.1,0,0.2,0c0,0,0.1,0,0.1,0c0,0,0,0,0.1,0c0,0,0,0,0-0.1v-4.2C99.9,53.4,99.9,53.4,99.9,53.3    C99.9,53.4,99.9,53.4,99.9,53.3z M99.6,51.6c-0.2,0-0.3,0-0.4,0.1c-0.1,0.1-0.1,0.2-0.1,0.4c0,0.2,0,0.3,0.1,0.4    c0.1,0.1,0.2,0.1,0.4,0.1c0.2,0,0.3,0,0.4-0.1c0.1-0.1,0.1-0.2,0.1-0.4c0-0.2,0-0.3-0.1-0.4C99.9,51.6,99.7,51.6,99.6,51.6z     M105.3,53.8c-0.1-0.2-0.3-0.3-0.5-0.4c-0.2-0.1-0.4-0.1-0.7-0.1c-0.2,0-0.5,0.1-0.7,0.2c-0.2,0.1-0.5,0.3-0.7,0.6v-0.6    c0,0,0,0,0-0.1c0,0,0,0-0.1,0s-0.1,0-0.1,0c0,0-0.1,0-0.2,0c-0.1,0-0.1,0-0.2,0c0,0-0.1,0-0.1,0c0,0,0,0-0.1,0c0,0,0,0,0,0.1v4.2    c0,0,0,0,0,0.1c0,0,0,0,0.1,0c0,0,0.1,0,0.1,0c0,0,0.1,0,0.2,0c0.1,0,0.1,0,0.2,0c0,0,0.1,0,0.1,0c0,0,0,0,0.1,0c0,0,0,0,0-0.1    v-2.9c0.2-0.3,0.4-0.5,0.6-0.6c0.2-0.1,0.4-0.2,0.6-0.2c0.1,0,0.3,0,0.4,0.1c0.1,0.1,0.2,0.1,0.3,0.2c0.1,0.1,0.1,0.2,0.2,0.4    c0,0.1,0.1,0.3,0.1,0.6v2.5c0,0,0,0,0,0.1c0,0,0,0,0.1,0c0,0,0.1,0,0.1,0c0,0,0.1,0,0.2,0c0.1,0,0.1,0,0.2,0c0,0,0.1,0,0.1,0    c0,0,0,0,0.1,0c0,0,0,0,0-0.1v-2.6c0-0.3,0-0.6-0.1-0.8C105.5,54.1,105.4,53.9,105.3,53.8z M109.6,54c0,0,0.1,0,0.1-0.1    c0,0,0-0.1,0-0.2c0-0.1,0-0.1,0-0.1c0,0,0-0.1,0-0.1c0,0,0,0,0-0.1s0,0-0.1,0h-1.1v-1c0,0,0,0,0-0.1c0,0,0,0-0.1,0    c0,0-0.1,0-0.1,0c0,0-0.1,0-0.2,0c-0.1,0-0.1,0-0.2,0s-0.1,0-0.1,0c0,0-0.1,0-0.1,0c0,0,0,0,0,0.1v1h-0.6c0,0,0,0-0.1,0s0,0,0,0.1    c0,0,0,0.1,0,0.1c0,0,0,0.1,0,0.1c0,0.1,0,0.2,0,0.2c0,0,0.1,0.1,0.1,0.1h0.6v2.5c0,0.2,0,0.5,0.1,0.6c0,0.2,0.1,0.3,0.2,0.4    c0.1,0.1,0.2,0.2,0.4,0.3c0.2,0.1,0.3,0.1,0.6,0.1c0.1,0,0.1,0,0.2,0c0.1,0,0.1,0,0.2,0c0.1,0,0.1,0,0.2-0.1s0.1,0,0.1-0.1    c0,0,0-0.1,0.1-0.1c0-0.1,0-0.1,0-0.2c0-0.1,0-0.1,0-0.1c0,0,0-0.1,0-0.1c0,0,0,0,0,0c0,0,0,0,0,0c0,0-0.1,0-0.1,0    c0,0-0.1,0-0.1,0c0,0-0.1,0-0.1,0c-0.1,0-0.1,0-0.2,0c-0.2,0-0.4-0.1-0.5-0.2c-0.1-0.1-0.1-0.4-0.1-0.7V54H109.6z M114.1,53.6    c-0.1-0.1-0.3-0.2-0.5-0.3c-0.2-0.1-0.5-0.1-0.8-0.1c-0.2,0-0.3,0-0.5,0c-0.2,0-0.3,0.1-0.4,0.1c-0.1,0-0.3,0.1-0.4,0.2    c-0.1,0.1-0.2,0.1-0.2,0.1c0,0-0.1,0.1-0.1,0.1c0,0,0,0.1,0,0.2c0,0,0,0.1,0,0.1c0,0,0,0.1,0,0.1s0,0,0,0.1c0,0,0,0,0.1,0    c0,0,0.1,0,0.2-0.1c0.1,0,0.2-0.1,0.3-0.1c0.1-0.1,0.2-0.1,0.4-0.1c0.2,0,0.3-0.1,0.5-0.1c0.2,0,0.3,0,0.4,0.1    c0.1,0,0.2,0.1,0.3,0.2c0.1,0.1,0.1,0.2,0.2,0.3c0,0.1,0.1,0.3,0.1,0.4v0.3h-0.6c-0.3,0-0.6,0-0.9,0.1c-0.3,0.1-0.5,0.1-0.7,0.3    c-0.2,0.1-0.3,0.3-0.4,0.4c-0.1,0.2-0.1,0.4-0.1,0.6c0,0.2,0,0.4,0.1,0.5c0.1,0.2,0.2,0.3,0.3,0.4c0.1,0.1,0.3,0.2,0.5,0.2    c0.2,0.1,0.4,0.1,0.6,0.1c0.3,0,0.5-0.1,0.7-0.2c0.2-0.1,0.4-0.3,0.6-0.5v0.4c0,0,0,0.1,0,0.1c0,0,0.1,0,0.1,0c0,0,0.1,0,0.2,0    c0.1,0,0.1,0,0.2,0c0,0,0.1,0,0.1,0c0,0,0,0,0-0.1v-2.8c0-0.3,0-0.5-0.1-0.7C114.3,53.9,114.2,53.8,114.1,53.6z M113.7,56.6    c-0.2,0.2-0.4,0.4-0.5,0.5c-0.2,0.1-0.4,0.2-0.6,0.2c-0.2,0-0.4-0.1-0.6-0.2c-0.1-0.1-0.2-0.3-0.2-0.5c0-0.1,0-0.2,0.1-0.3    c0-0.1,0.1-0.2,0.2-0.3c0.1-0.1,0.2-0.1,0.4-0.2c0.2,0,0.3-0.1,0.6-0.1h0.7V56.6z M116.9,51.6c-0.2,0-0.3,0-0.4,0.1    c-0.1,0.1-0.1,0.2-0.1,0.4c0,0.2,0,0.3,0.1,0.4c0.1,0.1,0.2,0.1,0.4,0.1c0.2,0,0.3,0,0.4-0.1c0.1-0.1,0.1-0.2,0.1-0.4    c0-0.2,0-0.3-0.1-0.4S117.1,51.6,116.9,51.6z M117.2,53.3c0,0-0.1,0-0.1,0c0,0-0.1,0-0.2,0c-0.1,0-0.1,0-0.2,0c0,0-0.1,0-0.1,0    c0,0,0,0-0.1,0c0,0,0,0,0,0.1v4.2c0,0,0,0,0,0.1c0,0,0,0,0.1,0c0,0,0.1,0,0.1,0c0,0,0.1,0,0.2,0c0.1,0,0.1,0,0.2,0    c0,0,0.1,0,0.1,0c0,0,0,0,0.1,0c0,0,0,0,0-0.1v-4.2C117.3,53.4,117.3,53.4,117.2,53.3C117.2,53.4,117.2,53.4,117.2,53.3z     M122.6,53.8c-0.1-0.2-0.3-0.3-0.5-0.4c-0.2-0.1-0.4-0.1-0.7-0.1c-0.2,0-0.5,0.1-0.7,0.2c-0.2,0.1-0.5,0.3-0.7,0.6v-0.6    c0,0,0,0,0-0.1c0,0,0,0-0.1,0s-0.1,0-0.1,0c0,0-0.1,0-0.2,0c-0.1,0-0.1,0-0.2,0c0,0-0.1,0-0.1,0c0,0,0,0-0.1,0c0,0,0,0,0,0.1v4.2    c0,0,0,0,0,0.1c0,0,0,0,0.1,0c0,0,0.1,0,0.1,0c0,0,0.1,0,0.2,0c0.1,0,0.1,0,0.2,0c0,0,0.1,0,0.1,0c0,0,0,0,0.1,0c0,0,0,0,0-0.1    v-2.9c0.2-0.3,0.4-0.5,0.6-0.6c0.2-0.1,0.4-0.2,0.6-0.2c0.1,0,0.3,0,0.4,0.1c0.1,0.1,0.2,0.1,0.3,0.2c0.1,0.1,0.1,0.2,0.2,0.4    c0,0.1,0.1,0.3,0.1,0.6v2.5c0,0,0,0,0,0.1c0,0,0,0,0.1,0c0,0,0.1,0,0.1,0c0,0,0.1,0,0.2,0c0.1,0,0.1,0,0.2,0c0,0,0.1,0,0.1,0    c0,0,0,0,0.1,0c0,0,0,0,0-0.1v-2.6c0-0.3,0-0.6-0.1-0.8C122.8,54.1,122.7,53.9,122.6,53.8z M131.4,51.7c-0.1,0-0.2,0-0.3,0    c-0.1,0-0.1,0-0.2,0c-0.1,0-0.1,0-0.1,0c0,0-0.1,0-0.1,0c0,0,0,0,0,0.1l-0.8,1.7c-0.1,0.2-0.2,0.3-0.2,0.5    c-0.1,0.2-0.1,0.4-0.2,0.5h0c-0.1-0.2-0.2-0.4-0.2-0.5c-0.1-0.2-0.2-0.4-0.2-0.5l-0.8-1.7c0,0,0-0.1,0-0.1c0,0,0,0-0.1,0    c0,0-0.1,0-0.1,0c-0.1,0-0.1,0-0.2,0c-0.1,0-0.2,0-0.2,0c-0.1,0-0.1,0-0.1,0c0,0,0,0.1,0,0.1c0,0,0,0.1,0.1,0.2l1.7,3.4v2.2    c0,0,0,0,0,0.1c0,0,0,0,0.1,0c0,0,0.1,0,0.1,0c0.1,0,0.1,0,0.2,0c0.1,0,0.1,0,0.2,0c0.1,0,0.1,0,0.1,0c0,0,0.1,0,0.1,0    c0,0,0,0,0-0.1v-2.2l1.7-3.4c0-0.1,0.1-0.1,0.1-0.2c0,0,0-0.1,0-0.1C131.5,51.7,131.5,51.7,131.4,51.7z M135.7,53.8    c-0.2-0.2-0.4-0.3-0.6-0.4c-0.3-0.1-0.6-0.2-0.9-0.2c-0.4,0-0.7,0.1-0.9,0.2c-0.3,0.1-0.5,0.3-0.7,0.5c-0.2,0.2-0.3,0.5-0.4,0.7    c-0.1,0.3-0.1,0.6-0.1,0.9c0,0.4,0,0.7,0.1,1c0.1,0.3,0.2,0.5,0.4,0.7c0.2,0.2,0.4,0.3,0.6,0.4c0.3,0.1,0.6,0.2,0.9,0.2    c0.4,0,0.7-0.1,0.9-0.2c0.3-0.1,0.5-0.3,0.7-0.5c0.2-0.2,0.3-0.5,0.4-0.7c0.1-0.3,0.1-0.6,0.1-0.9c0-0.4,0-0.7-0.1-0.9    C136,54.3,135.9,54,135.7,53.8z M135.4,56.2c-0.1,0.2-0.1,0.4-0.2,0.5c-0.1,0.1-0.2,0.3-0.4,0.3c-0.2,0.1-0.4,0.1-0.6,0.1    c-0.2,0-0.5,0-0.6-0.1c-0.2-0.1-0.3-0.2-0.4-0.4c-0.1-0.2-0.2-0.3-0.2-0.5c0-0.2-0.1-0.4-0.1-0.6c0-0.2,0-0.5,0.1-0.7    c0.1-0.2,0.1-0.4,0.2-0.5c0.1-0.1,0.2-0.3,0.4-0.3c0.2-0.1,0.4-0.1,0.6-0.1c0.2,0,0.5,0,0.6,0.1s0.3,0.2,0.4,0.4    c0.1,0.2,0.2,0.3,0.2,0.5c0,0.2,0.1,0.4,0.1,0.6C135.5,55.8,135.4,56,135.4,56.2z M141.5,53.3c0,0-0.1,0-0.1,0c0,0-0.1,0-0.2,0    c-0.1,0-0.1,0-0.2,0c0,0-0.1,0-0.1,0c0,0-0.1,0-0.1,0c0,0,0,0,0,0.1v2.9c-0.2,0.3-0.4,0.5-0.6,0.6c-0.2,0.1-0.4,0.2-0.6,0.2    c-0.1,0-0.3,0-0.4-0.1c-0.1-0.1-0.2-0.1-0.3-0.2c-0.1-0.1-0.1-0.2-0.2-0.4c0-0.1-0.1-0.3-0.1-0.6v-2.4c0,0,0,0,0-0.1s0,0-0.1,0    c0,0-0.1,0-0.1,0c0,0-0.1,0-0.2,0s-0.1,0-0.2,0c0,0-0.1,0-0.1,0c0,0-0.1,0-0.1,0c0,0,0,0,0,0.1V56c0,0.3,0,0.6,0.1,0.8    c0.1,0.2,0.1,0.4,0.3,0.6c0.1,0.2,0.3,0.3,0.5,0.4c0.2,0.1,0.4,0.1,0.7,0.1c0.2,0,0.5-0.1,0.7-0.2c0.2-0.1,0.5-0.3,0.7-0.6v0.6    c0,0,0,0,0,0.1c0,0,0,0,0.1,0c0,0,0.1,0,0.1,0c0,0,0.1,0,0.2,0c0.1,0,0.1,0,0.2,0c0,0,0.1,0,0.1,0c0,0,0,0,0.1,0c0,0,0,0,0-0.1    v-4.2C141.6,53.4,141.6,53.4,141.5,53.3C141.6,53.4,141.6,53.4,141.5,53.3z M146.1,53.5C146.1,53.4,146.1,53.4,146.1,53.5    C146.1,53.4,146.1,53.4,146.1,53.5c-0.1-0.1-0.1-0.1-0.1-0.1c0,0-0.1,0-0.2,0c-0.1,0-0.1,0-0.2,0c-0.1,0-0.1,0-0.1,0    c-0.1,0-0.2,0-0.3,0c-0.1,0-0.2,0.1-0.3,0.1c-0.1,0.1-0.2,0.1-0.3,0.2c-0.1,0.1-0.2,0.2-0.3,0.4v-0.6c0,0,0,0,0-0.1c0,0,0,0-0.1,0    s-0.1,0-0.1,0c0,0-0.1,0-0.2,0c-0.1,0-0.1,0-0.2,0c0,0-0.1,0-0.1,0c0,0,0,0-0.1,0c0,0,0,0,0,0.1v4.2c0,0,0,0,0,0.1c0,0,0,0,0.1,0    c0,0,0.1,0,0.1,0c0,0,0.1,0,0.2,0c0.1,0,0.1,0,0.2,0c0,0,0.1,0,0.1,0c0,0,0,0,0.1,0c0,0,0,0,0-0.1v-2.8c0.1-0.2,0.2-0.3,0.3-0.4    c0.1-0.1,0.2-0.2,0.3-0.3c0.1-0.1,0.2-0.1,0.2-0.2c0.1,0,0.2,0,0.2,0c0.1,0,0.1,0,0.2,0c0.1,0,0.1,0,0.2,0c0,0,0.1,0,0.1,0    c0,0,0.1,0,0.1,0s0,0,0.1,0c0,0,0,0,0-0.1c0,0,0-0.1,0-0.1c0,0,0-0.1,0-0.2C146.1,53.7,146.1,53.6,146.1,53.5    C146.1,53.5,146.1,53.5,146.1,53.5z M154.8,51.7c0,0-0.1,0-0.1,0c-0.1,0-0.1,0-0.2,0c-0.1,0-0.1,0-0.2,0c0,0-0.1,0-0.1,0    c0,0-0.1,0-0.1,0c0,0,0,0,0,0.1v2.4h-2.8v-2.4c0,0,0,0,0-0.1c0,0,0,0-0.1,0c0,0-0.1,0-0.1,0c-0.1,0-0.1,0-0.2,0    c-0.1,0-0.1,0-0.2,0c-0.1,0-0.1,0-0.1,0c0,0-0.1,0-0.1,0c0,0,0,0,0,0.1v5.8c0,0,0,0,0,0.1c0,0,0,0,0.1,0c0,0,0.1,0,0.1,0    c0.1,0,0.1,0,0.2,0c0.1,0,0.1,0,0.2,0c0.1,0,0.1,0,0.1,0c0,0,0.1,0,0.1,0c0,0,0,0,0-0.1V55h2.8v2.7c0,0,0,0,0,0.1c0,0,0,0,0.1,0    c0,0,0.1,0,0.1,0c0,0,0.1,0,0.2,0c0.1,0,0.1,0,0.2,0c0.1,0,0.1,0,0.1,0c0,0,0.1,0,0.1,0c0,0,0,0,0-0.1v-5.8    C154.9,51.8,154.9,51.8,154.8,51.7C154.8,51.8,154.8,51.7,154.8,51.7z M160.2,53.8c-0.1-0.2-0.3-0.3-0.6-0.4    c-0.2-0.1-0.5-0.2-0.8-0.2c-0.3,0-0.6,0.1-0.8,0.2c-0.2,0.1-0.5,0.3-0.6,0.5c-0.2,0.2-0.3,0.4-0.4,0.7c-0.1,0.3-0.1,0.6-0.1,1    c0,0.4,0,0.7,0.1,1c0.1,0.3,0.2,0.5,0.4,0.7c0.2,0.2,0.4,0.3,0.7,0.4c0.3,0.1,0.6,0.1,0.9,0.1c0.2,0,0.4,0,0.6,0    c0.2,0,0.3-0.1,0.5-0.1c0.1,0,0.2-0.1,0.3-0.1c0.1,0,0.1-0.1,0.2-0.1c0,0,0,0,0-0.1c0,0,0,0,0-0.1c0,0,0,0,0-0.1c0,0,0-0.1,0-0.1    c0-0.1,0-0.1,0-0.1c0,0,0-0.1,0-0.1c0,0,0,0,0,0c0,0,0,0-0.1,0c0,0-0.1,0-0.2,0c-0.1,0-0.2,0.1-0.3,0.1c-0.1,0-0.2,0.1-0.4,0.1    c-0.2,0-0.3,0-0.5,0c-0.3,0-0.5,0-0.6-0.1c-0.2-0.1-0.3-0.2-0.4-0.3c-0.1-0.1-0.2-0.3-0.2-0.5c0-0.2-0.1-0.4-0.1-0.6h2.8    c0.1,0,0.1,0,0.2-0.1c0.1-0.1,0.1-0.1,0.1-0.3v-0.1c0-0.3,0-0.5-0.1-0.8C160.4,54.2,160.3,54,160.2,53.8z M157.5,55.1    c0-0.2,0-0.3,0.1-0.5c0.1-0.2,0.1-0.3,0.2-0.4c0.1-0.1,0.2-0.2,0.4-0.3s0.3-0.1,0.5-0.1c0.4,0,0.7,0.1,0.8,0.3    c0.2,0.2,0.3,0.5,0.3,1H157.5z M165.2,53.6c-0.1-0.1-0.3-0.2-0.5-0.3c-0.2-0.1-0.5-0.1-0.8-0.1c-0.2,0-0.3,0-0.5,0    c-0.2,0-0.3,0.1-0.4,0.1c-0.1,0-0.3,0.1-0.4,0.2c-0.1,0.1-0.2,0.1-0.2,0.1c0,0-0.1,0.1-0.1,0.1c0,0,0,0.1,0,0.2c0,0,0,0.1,0,0.1    c0,0,0,0.1,0,0.1c0,0,0,0,0,0.1c0,0,0,0,0.1,0c0,0,0.1,0,0.2-0.1c0.1,0,0.2-0.1,0.3-0.1c0.1-0.1,0.2-0.1,0.4-0.1    c0.2,0,0.3-0.1,0.5-0.1c0.2,0,0.3,0,0.4,0.1c0.1,0,0.2,0.1,0.3,0.2c0.1,0.1,0.1,0.2,0.2,0.3c0,0.1,0.1,0.3,0.1,0.4v0.3h-0.6    c-0.3,0-0.6,0-0.9,0.1c-0.3,0.1-0.5,0.1-0.7,0.3c-0.2,0.1-0.3,0.3-0.4,0.4c-0.1,0.2-0.1,0.4-0.1,0.6c0,0.2,0,0.4,0.1,0.5    c0.1,0.2,0.2,0.3,0.3,0.4c0.1,0.1,0.3,0.2,0.5,0.2c0.2,0.1,0.4,0.1,0.6,0.1c0.3,0,0.5-0.1,0.7-0.2c0.2-0.1,0.4-0.3,0.6-0.5v0.4    c0,0,0,0.1,0,0.1c0,0,0.1,0,0.1,0c0,0,0.1,0,0.2,0c0.1,0,0.1,0,0.2,0c0,0,0.1,0,0.1,0c0,0,0,0,0-0.1v-2.8c0-0.3,0-0.5-0.1-0.7    C165.4,53.9,165.3,53.8,165.2,53.6z M164.8,56.6c-0.2,0.2-0.4,0.4-0.5,0.5c-0.2,0.1-0.4,0.2-0.6,0.2c-0.2,0-0.4-0.1-0.6-0.2    c-0.1-0.1-0.2-0.3-0.2-0.5c0-0.1,0-0.2,0.1-0.3c0-0.1,0.1-0.2,0.2-0.3c0.1-0.1,0.2-0.1,0.4-0.2c0.2,0,0.3-0.1,0.6-0.1h0.7V56.6z     M168.3,51.3c0,0-0.1,0-0.1,0c0,0-0.1,0-0.2,0c-0.1,0-0.1,0-0.2,0c0,0-0.1,0-0.1,0c0,0,0,0-0.1,0c0,0,0,0,0,0.1v6.2c0,0,0,0,0,0.1    c0,0,0,0,0.1,0c0,0,0.1,0,0.1,0c0,0,0.1,0,0.2,0c0.1,0,0.1,0,0.2,0c0,0,0.1,0,0.1,0c0,0,0,0,0.1,0c0,0,0,0,0-0.1v-6.2    C168.4,51.4,168.4,51.4,168.3,51.3C168.4,51.3,168.3,51.3,168.3,51.3z M172.5,54c0,0,0.1,0,0.1-0.1c0,0,0-0.1,0-0.2    c0-0.1,0-0.1,0-0.1c0,0,0-0.1,0-0.1c0,0,0,0,0-0.1c0,0,0,0-0.1,0h-1.1v-1c0,0,0,0,0-0.1c0,0,0,0-0.1,0c0,0-0.1,0-0.1,0    c0,0-0.1,0-0.2,0c-0.1,0-0.1,0-0.2,0s-0.1,0-0.1,0c0,0,0,0-0.1,0c0,0,0,0,0,0.1v1H170c0,0,0,0-0.1,0c0,0,0,0,0,0.1    c0,0,0,0.1,0,0.1c0,0,0,0.1,0,0.1c0,0.1,0,0.2,0,0.2c0,0,0.1,0.1,0.1,0.1h0.6v2.5c0,0.2,0,0.5,0.1,0.6c0,0.2,0.1,0.3,0.2,0.4    c0.1,0.1,0.2,0.2,0.4,0.3c0.2,0.1,0.3,0.1,0.6,0.1c0.1,0,0.1,0,0.2,0c0.1,0,0.1,0,0.2,0c0.1,0,0.1,0,0.2-0.1c0,0,0.1,0,0.1-0.1    c0,0,0-0.1,0.1-0.1c0-0.1,0-0.1,0-0.2c0-0.1,0-0.1,0-0.1c0,0,0-0.1,0-0.1c0,0,0,0,0,0c0,0,0,0,0,0c0,0-0.1,0-0.1,0    c0,0-0.1,0-0.1,0c0,0-0.1,0-0.1,0c-0.1,0-0.1,0-0.2,0c-0.2,0-0.4-0.1-0.5-0.2c-0.1-0.1-0.1-0.4-0.1-0.7V54H172.5z M177.6,53.8    c-0.1-0.2-0.3-0.3-0.5-0.4c-0.2-0.1-0.4-0.1-0.7-0.1c-0.2,0-0.5,0.1-0.7,0.2c-0.2,0.1-0.4,0.3-0.7,0.5v-2.5c0,0,0,0,0-0.1    c0,0,0,0-0.1,0s-0.1,0-0.1,0c0,0-0.1,0-0.2,0c-0.1,0-0.1,0-0.2,0c-0.1,0-0.1,0-0.1,0c0,0,0,0-0.1,0c0,0,0,0,0,0.1v6.2    c0,0,0,0,0,0.1c0,0,0,0,0.1,0c0,0,0.1,0,0.1,0c0,0,0.1,0,0.2,0c0.1,0,0.1,0,0.2,0c0,0,0.1,0,0.1,0c0,0,0,0,0.1,0c0,0,0,0,0-0.1    v-2.9c0.2-0.3,0.4-0.5,0.6-0.6c0.2-0.1,0.4-0.2,0.6-0.2c0.1,0,0.3,0,0.4,0.1c0.1,0.1,0.2,0.1,0.3,0.2c0.1,0.1,0.1,0.2,0.2,0.4    c0,0.1,0.1,0.3,0.1,0.6v2.5c0,0,0,0,0,0.1c0,0,0,0,0.1,0c0,0,0.1,0,0.1,0c0,0,0.1,0,0.2,0c0.1,0,0.1,0,0.2,0c0,0,0.1,0,0.1,0    c0,0,0,0,0.1,0c0,0,0,0,0-0.1v-2.6c0-0.3,0-0.6-0.1-0.8C177.8,54.1,177.7,53.9,177.6,53.8z M184.8,54c0,0,0.1,0,0.1-0.1    c0,0,0-0.1,0-0.2c0-0.1,0-0.1,0-0.1c0,0,0-0.1,0-0.1c0,0,0,0,0-0.1c0,0,0,0-0.1,0h-1.1v-1c0,0,0,0,0-0.1c0,0,0,0-0.1,0    c0,0-0.1,0-0.1,0c0,0-0.1,0-0.2,0c-0.1,0-0.1,0-0.2,0c-0.1,0-0.1,0-0.1,0c0,0,0,0-0.1,0c0,0,0,0,0,0.1v1h-0.6c0,0,0,0-0.1,0    s0,0,0,0.1c0,0,0,0.1,0,0.1c0,0,0,0.1,0,0.1c0,0.1,0,0.2,0,0.2c0,0,0.1,0.1,0.1,0.1h0.6v2.5c0,0.2,0,0.5,0.1,0.6    c0,0.2,0.1,0.3,0.2,0.4c0.1,0.1,0.2,0.2,0.4,0.3c0.2,0.1,0.3,0.1,0.6,0.1c0.1,0,0.1,0,0.2,0c0.1,0,0.1,0,0.2,0    c0.1,0,0.1,0,0.2-0.1c0,0,0.1,0,0.1-0.1c0,0,0-0.1,0.1-0.1c0-0.1,0-0.1,0-0.2c0-0.1,0-0.1,0-0.1c0,0,0-0.1,0-0.1c0,0,0,0,0,0    c0,0,0,0,0,0c0,0-0.1,0-0.1,0c0,0-0.1,0-0.1,0c0,0-0.1,0-0.1,0c-0.1,0-0.1,0-0.2,0c-0.2,0-0.4-0.1-0.5-0.2    c-0.1-0.1-0.1-0.4-0.1-0.7V54H184.8z M189.9,53.8c-0.2-0.2-0.4-0.3-0.6-0.4c-0.3-0.1-0.6-0.2-0.9-0.2c-0.4,0-0.7,0.1-0.9,0.2    c-0.3,0.1-0.5,0.3-0.7,0.5c-0.2,0.2-0.3,0.5-0.4,0.7s-0.1,0.6-0.1,0.9c0,0.4,0,0.7,0.1,1c0.1,0.3,0.2,0.5,0.4,0.7    c0.2,0.2,0.4,0.3,0.6,0.4c0.3,0.1,0.6,0.2,0.9,0.2c0.4,0,0.7-0.1,0.9-0.2c0.3-0.1,0.5-0.3,0.7-0.5c0.2-0.2,0.3-0.5,0.4-0.7    c0.1-0.3,0.1-0.6,0.1-0.9c0-0.4,0-0.7-0.1-0.9C190.2,54.3,190,54,189.9,53.8z M189.5,56.2c-0.1,0.2-0.1,0.4-0.2,0.5    c-0.1,0.1-0.2,0.3-0.4,0.3c-0.2,0.1-0.4,0.1-0.6,0.1c-0.2,0-0.5,0-0.6-0.1c-0.2-0.1-0.3-0.2-0.4-0.4c-0.1-0.2-0.2-0.3-0.2-0.5    c0-0.2-0.1-0.4-0.1-0.6c0-0.2,0-0.5,0.1-0.7c0.1-0.2,0.1-0.4,0.2-0.5c0.1-0.1,0.2-0.3,0.4-0.3c0.2-0.1,0.4-0.1,0.6-0.1    c0.2,0,0.5,0,0.6,0.1s0.3,0.2,0.4,0.4c0.1,0.2,0.2,0.3,0.2,0.5c0,0.2,0.1,0.4,0.1,0.6C189.6,55.8,189.6,56,189.5,56.2z     M198.3,57.2C198.3,57.2,198.3,57.1,198.3,57.2c-0.1-0.1-0.1-0.1-0.1-0.1h-2.4v-2.2h2c0,0,0,0,0.1,0c0,0,0,0,0.1-0.1    c0,0,0-0.1,0-0.1c0,0,0-0.1,0-0.1c0-0.1,0-0.1,0-0.2c0,0,0-0.1,0-0.1c0,0,0,0-0.1-0.1c0,0,0,0-0.1,0h-2v-1.9h2.4c0,0,0,0,0.1,0    c0,0,0,0,0-0.1c0,0,0-0.1,0-0.1c0,0,0-0.1,0-0.1c0-0.1,0-0.1,0-0.2c0,0,0-0.1,0-0.1c0,0,0,0,0-0.1c0,0,0,0-0.1,0h-2.9    c-0.1,0-0.1,0-0.2,0.1c-0.1,0-0.1,0.1-0.1,0.3v5.4c0,0.1,0,0.2,0.1,0.3c0.1,0,0.1,0.1,0.2,0.1h2.9c0,0,0,0,0.1,0c0,0,0,0,0.1-0.1    c0,0,0-0.1,0-0.1c0,0,0-0.1,0-0.1c0-0.1,0-0.1,0-0.2S198.4,57.2,198.3,57.2z M203.5,53.8c-0.1-0.2-0.3-0.3-0.5-0.4    c-0.2-0.1-0.4-0.1-0.7-0.1c-0.2,0-0.5,0.1-0.7,0.2c-0.2,0.1-0.5,0.3-0.7,0.6v-0.6c0,0,0,0,0-0.1s0,0-0.1,0s-0.1,0-0.1,0    c0,0-0.1,0-0.2,0c-0.1,0-0.1,0-0.2,0c0,0-0.1,0-0.1,0c0,0,0,0-0.1,0c0,0,0,0,0,0.1v4.2c0,0,0,0,0,0.1c0,0,0,0,0.1,0    c0,0,0.1,0,0.1,0c0,0,0.1,0,0.2,0c0.1,0,0.1,0,0.2,0c0,0,0.1,0,0.1,0c0,0,0,0,0.1,0c0,0,0,0,0-0.1v-2.9c0.2-0.3,0.4-0.5,0.6-0.6    c0.2-0.1,0.4-0.2,0.6-0.2c0.1,0,0.3,0,0.4,0.1c0.1,0.1,0.2,0.1,0.3,0.2c0.1,0.1,0.1,0.2,0.2,0.4c0,0.1,0.1,0.3,0.1,0.6v2.5    c0,0,0,0,0,0.1c0,0,0,0,0.1,0c0,0,0.1,0,0.1,0c0,0,0.1,0,0.2,0c0.1,0,0.1,0,0.2,0c0,0,0.1,0,0.1,0c0,0,0,0,0.1,0c0,0,0,0,0-0.1    v-2.6c0-0.3,0-0.6-0.1-0.8C203.7,54.1,203.6,53.9,203.5,53.8z M206.4,51.6c-0.2,0-0.3,0-0.4,0.1c-0.1,0.1-0.1,0.2-0.1,0.4    c0,0.2,0,0.3,0.1,0.4c0.1,0.1,0.2,0.1,0.4,0.1c0.2,0,0.3,0,0.4-0.1c0.1-0.1,0.1-0.2,0.1-0.4c0-0.2,0-0.3-0.1-0.4    S206.6,51.6,206.4,51.6z M206.7,53.3c0,0-0.1,0-0.1,0c0,0-0.1,0-0.2,0c-0.1,0-0.1,0-0.2,0c0,0-0.1,0-0.1,0c0,0-0.1,0-0.1,0    c0,0,0,0,0,0.1v4.4c0,0.2,0,0.4,0,0.5c0,0.1-0.1,0.2-0.1,0.3c0,0.1-0.1,0.1-0.2,0.2c-0.1,0-0.2,0-0.3,0c-0.1,0-0.1,0-0.2,0    c-0.1,0-0.1,0-0.1,0c0,0,0,0-0.1,0c0,0,0,0,0,0.1c0,0,0,0.1,0,0.1c0,0,0,0.1,0,0.1c0,0,0,0.1,0,0.1c0,0,0,0.1,0,0.1c0,0,0,0,0,0.1    c0,0,0,0,0.1,0.1c0,0,0.1,0,0.2,0c0.1,0,0.2,0,0.3,0c0.2,0,0.4,0,0.6-0.1c0.2-0.1,0.3-0.2,0.4-0.3c0.1-0.1,0.2-0.3,0.2-0.5    c0-0.2,0.1-0.4,0.1-0.8v-4.4C206.8,53.4,206.7,53.4,206.7,53.3C206.7,53.4,206.7,53.4,206.7,53.3z M212.2,53.8    c-0.2-0.2-0.4-0.3-0.6-0.4c-0.3-0.1-0.6-0.2-0.9-0.2c-0.4,0-0.7,0.1-0.9,0.2c-0.3,0.1-0.5,0.3-0.7,0.5c-0.2,0.2-0.3,0.5-0.4,0.7    c-0.1,0.3-0.1,0.6-0.1,0.9c0,0.4,0,0.7,0.1,1c0.1,0.3,0.2,0.5,0.4,0.7c0.2,0.2,0.4,0.3,0.6,0.4c0.3,0.1,0.6,0.2,0.9,0.2    c0.4,0,0.7-0.1,0.9-0.2c0.3-0.1,0.5-0.3,0.7-0.5c0.2-0.2,0.3-0.5,0.4-0.7c0.1-0.3,0.1-0.6,0.1-0.9c0-0.4,0-0.7-0.1-0.9    C212.5,54.3,212.4,54,212.2,53.8z M211.8,56.2c-0.1,0.2-0.1,0.4-0.2,0.5c-0.1,0.1-0.2,0.3-0.4,0.3c-0.2,0.1-0.4,0.1-0.6,0.1    c-0.2,0-0.5,0-0.6-0.1c-0.2-0.1-0.3-0.2-0.4-0.4c-0.1-0.2-0.2-0.3-0.2-0.5c0-0.2-0.1-0.4-0.1-0.6c0-0.2,0-0.5,0.1-0.7    c0.1-0.2,0.1-0.4,0.2-0.5c0.1-0.1,0.2-0.3,0.4-0.3c0.2-0.1,0.4-0.1,0.6-0.1c0.2,0,0.5,0,0.6,0.1c0.2,0.1,0.3,0.2,0.4,0.4    c0.1,0.2,0.2,0.3,0.2,0.5c0,0.2,0.1,0.4,0.1,0.6C211.9,55.8,211.9,56,211.8,56.2z M217.7,53.3c-0.1,0-0.1,0-0.2,0    c-0.1,0-0.2,0-0.2,0c-0.1,0-0.1,0-0.1,0c0,0,0,0.1-0.1,0.1l-1.2,3.4h0l-1.2-3.4c0,0,0-0.1,0-0.1c0,0,0,0-0.1-0.1c0,0-0.1,0-0.1,0    c-0.1,0-0.1,0-0.2,0c-0.1,0-0.2,0-0.2,0c-0.1,0-0.1,0-0.1,0c0,0,0,0.1,0,0.1c0,0,0,0.1,0,0.2l1.5,4c0,0,0,0.1,0.1,0.1    c0,0,0.1,0,0.1,0.1l-0.6,1.5c0,0,0,0.1,0,0.1c0,0,0,0.1,0,0.1c0,0,0.1,0,0.1,0c0,0,0.1,0,0.2,0c0.2,0,0.3,0,0.3,0    c0.1,0,0.1-0.1,0.1-0.1l0.6-1.5l1.5-4.2c0-0.1,0-0.1,0-0.1c0,0,0-0.1,0-0.1C217.8,53.3,217.8,53.3,217.7,53.3z M225.8,51.7    c-0.1,0-0.2,0-0.3,0c-0.1,0-0.1,0-0.2,0c-0.1,0-0.1,0-0.1,0c0,0-0.1,0-0.1,0c0,0,0,0,0,0.1l-0.8,1.7c-0.1,0.2-0.2,0.3-0.2,0.5    c-0.1,0.2-0.1,0.4-0.2,0.5h0c-0.1-0.2-0.2-0.4-0.2-0.5c-0.1-0.2-0.2-0.4-0.2-0.5l-0.8-1.7c0,0,0-0.1,0-0.1c0,0,0,0-0.1,0    c0,0-0.1,0-0.1,0c-0.1,0-0.1,0-0.2,0c-0.1,0-0.2,0-0.2,0c-0.1,0-0.1,0-0.1,0c0,0,0,0.1,0,0.1c0,0,0,0.1,0.1,0.2l1.7,3.4v2.2    c0,0,0,0,0,0.1c0,0,0,0,0.1,0c0,0,0.1,0,0.1,0c0.1,0,0.1,0,0.2,0c0.1,0,0.1,0,0.2,0c0.1,0,0.1,0,0.1,0c0,0,0.1,0,0.1,0    c0,0,0,0,0-0.1v-2.2l1.7-3.4c0-0.1,0.1-0.1,0.1-0.2c0,0,0-0.1,0-0.1C225.9,51.7,225.9,51.7,225.8,51.7z M230.2,53.8    c-0.2-0.2-0.4-0.3-0.6-0.4c-0.3-0.1-0.6-0.2-0.9-0.2c-0.4,0-0.7,0.1-0.9,0.2c-0.3,0.1-0.5,0.3-0.7,0.5c-0.2,0.2-0.3,0.5-0.4,0.7    c-0.1,0.3-0.1,0.6-0.1,0.9c0,0.4,0,0.7,0.1,1c0.1,0.3,0.2,0.5,0.4,0.7c0.2,0.2,0.4,0.3,0.6,0.4c0.3,0.1,0.6,0.2,0.9,0.2    c0.4,0,0.7-0.1,0.9-0.2c0.3-0.1,0.5-0.3,0.7-0.5c0.2-0.2,0.3-0.5,0.4-0.7c0.1-0.3,0.1-0.6,0.1-0.9c0-0.4,0-0.7-0.1-0.9    C230.5,54.3,230.3,54,230.2,53.8z M229.8,56.2c-0.1,0.2-0.1,0.4-0.2,0.5c-0.1,0.1-0.2,0.3-0.4,0.3c-0.2,0.1-0.4,0.1-0.6,0.1    c-0.2,0-0.5,0-0.6-0.1c-0.2-0.1-0.3-0.2-0.4-0.4c-0.1-0.2-0.2-0.3-0.2-0.5c0-0.2-0.1-0.4-0.1-0.6c0-0.2,0-0.5,0.1-0.7    c0.1-0.2,0.1-0.4,0.2-0.5c0.1-0.1,0.2-0.3,0.4-0.3c0.2-0.1,0.4-0.1,0.6-0.1c0.2,0,0.5,0,0.6,0.1s0.3,0.2,0.4,0.4    c0.1,0.2,0.2,0.3,0.2,0.5c0,0.2,0.1,0.4,0.1,0.6C229.9,55.8,229.9,56,229.8,56.2z M236,53.3c0,0-0.1,0-0.1,0c0,0-0.1,0-0.2,0    c-0.1,0-0.1,0-0.2,0c0,0-0.1,0-0.1,0s-0.1,0-0.1,0s0,0,0,0.1v2.9c-0.2,0.3-0.4,0.5-0.6,0.6c-0.2,0.1-0.4,0.2-0.6,0.2    c-0.1,0-0.3,0-0.4-0.1c-0.1-0.1-0.2-0.1-0.3-0.2c-0.1-0.1-0.1-0.2-0.2-0.4c0-0.1-0.1-0.3-0.1-0.6v-2.4c0,0,0,0,0-0.1s0,0-0.1,0    c0,0-0.1,0-0.1,0c0,0-0.1,0-0.2,0s-0.1,0-0.2,0c0,0-0.1,0-0.1,0c0,0-0.1,0-0.1,0c0,0,0,0,0,0.1V56c0,0.3,0,0.6,0.1,0.8    c0.1,0.2,0.1,0.4,0.3,0.6c0.1,0.2,0.3,0.3,0.5,0.4c0.2,0.1,0.4,0.1,0.7,0.1c0.2,0,0.5-0.1,0.7-0.2c0.2-0.1,0.5-0.3,0.7-0.6v0.6    c0,0,0,0,0,0.1c0,0,0,0,0.1,0c0,0,0.1,0,0.1,0c0,0,0.1,0,0.2,0c0.1,0,0.1,0,0.2,0c0,0,0.1,0,0.1,0c0,0,0,0,0.1,0c0,0,0,0,0-0.1    v-4.2C236,53.4,236,53.4,236,53.3C236,53.4,236,53.4,236,53.3z M240.5,53.5C240.5,53.4,240.5,53.4,240.5,53.5    C240.5,53.4,240.5,53.4,240.5,53.5c-0.1-0.1-0.1-0.1-0.1-0.1c0,0-0.1,0-0.2,0c-0.1,0-0.1,0-0.2,0c-0.1,0-0.1,0-0.1,0    c-0.1,0-0.2,0-0.3,0c-0.1,0-0.2,0.1-0.3,0.1c-0.1,0.1-0.2,0.1-0.3,0.2s-0.2,0.2-0.3,0.4v-0.6c0,0,0,0,0-0.1s0,0-0.1,0    c0,0-0.1,0-0.1,0c0,0-0.1,0-0.2,0c-0.1,0-0.1,0-0.2,0c0,0-0.1,0-0.1,0c0,0,0,0-0.1,0c0,0,0,0,0,0.1v4.2c0,0,0,0,0,0.1    c0,0,0,0,0.1,0c0,0,0.1,0,0.1,0c0,0,0.1,0,0.2,0c0.1,0,0.1,0,0.2,0c0,0,0.1,0,0.1,0c0,0,0,0,0.1,0c0,0,0,0,0-0.1v-2.8    c0.1-0.2,0.2-0.3,0.3-0.4c0.1-0.1,0.2-0.2,0.3-0.3c0.1-0.1,0.2-0.1,0.2-0.2c0.1,0,0.2,0,0.2,0c0.1,0,0.1,0,0.2,0    c0.1,0,0.1,0,0.2,0c0,0,0.1,0,0.1,0c0,0,0.1,0,0.1,0s0,0,0.1,0c0,0,0,0,0-0.1c0,0,0-0.1,0-0.1c0,0,0-0.1,0-0.2    C240.6,53.7,240.6,53.6,240.5,53.5C240.5,53.5,240.5,53.5,240.5,53.5z M252.2,51.7c-0.1,0-0.1,0-0.2,0c-0.1,0-0.2,0-0.2,0    c-0.1,0-0.1,0-0.1,0c0,0,0,0-0.1,0.1c0,0,0,0.1,0,0.1l-1.3,5.1h0l-1.4-5.1c0,0,0-0.1,0-0.1c0,0,0,0-0.1-0.1c0,0-0.1,0-0.1,0    c-0.1,0-0.1,0-0.2,0c-0.1,0-0.2,0-0.2,0c-0.1,0-0.1,0-0.1,0c0,0-0.1,0-0.1,0.1c0,0,0,0.1,0,0.1l-1.3,5.1h0l-1.4-5.1    c0,0,0-0.1,0-0.1c0,0,0,0-0.1-0.1c0,0-0.1,0-0.1,0c-0.1,0-0.1,0-0.2,0c-0.1,0-0.2,0-0.2,0c-0.1,0-0.1,0-0.1,0c0,0,0,0.1,0,0.1    c0,0,0,0.1,0,0.2l1.6,5.6c0,0,0,0.1,0,0.1c0,0,0.1,0,0.1,0.1c0,0,0.1,0,0.2,0c0.1,0,0.2,0,0.3,0c0.1,0,0.2,0,0.2,0    c0.1,0,0.1,0,0.2,0c0,0,0.1,0,0.1-0.1c0,0,0-0.1,0-0.1l1.2-4.6h0l1.3,4.6c0,0,0,0.1,0.1,0.1c0,0,0.1,0,0.1,0.1c0,0,0.1,0,0.2,0    c0.1,0,0.1,0,0.2,0c0.1,0,0.2,0,0.2,0c0.1,0,0.1,0,0.2,0c0,0,0.1,0,0.1-0.1c0,0,0-0.1,0.1-0.1l1.6-5.6c0-0.1,0-0.1,0-0.2    c0,0,0-0.1,0-0.1C252.3,51.7,252.3,51.7,252.2,51.7z M256.8,53.8c-0.1-0.2-0.3-0.3-0.6-0.4c-0.2-0.1-0.5-0.2-0.8-0.2    c-0.3,0-0.6,0.1-0.8,0.2s-0.5,0.3-0.6,0.5c-0.2,0.2-0.3,0.4-0.4,0.7c-0.1,0.3-0.1,0.6-0.1,1c0,0.4,0,0.7,0.1,1    c0.1,0.3,0.2,0.5,0.4,0.7c0.2,0.2,0.4,0.3,0.7,0.4c0.3,0.1,0.6,0.1,0.9,0.1c0.2,0,0.4,0,0.6,0c0.2,0,0.3-0.1,0.5-0.1    c0.1,0,0.2-0.1,0.3-0.1c0.1,0,0.1-0.1,0.2-0.1c0,0,0,0,0-0.1c0,0,0,0,0-0.1c0,0,0,0,0-0.1c0,0,0-0.1,0-0.1c0-0.1,0-0.1,0-0.1    c0,0,0-0.1,0-0.1c0,0,0,0,0,0c0,0,0,0-0.1,0c0,0-0.1,0-0.2,0c-0.1,0-0.2,0.1-0.3,0.1c-0.1,0-0.2,0.1-0.4,0.1c-0.2,0-0.3,0-0.5,0    c-0.3,0-0.5,0-0.6-0.1c-0.2-0.1-0.3-0.2-0.4-0.3c-0.1-0.1-0.2-0.3-0.2-0.5c0-0.2-0.1-0.4-0.1-0.6h2.8c0.1,0,0.1,0,0.2-0.1    c0.1-0.1,0.1-0.1,0.1-0.3v-0.1c0-0.3,0-0.5-0.1-0.8C257.1,54.2,256.9,54,256.8,53.8z M254.2,55.1c0-0.2,0-0.3,0.1-0.5    c0.1-0.2,0.1-0.3,0.2-0.4c0.1-0.1,0.2-0.2,0.4-0.3c0.1-0.1,0.3-0.1,0.5-0.1c0.4,0,0.7,0.1,0.8,0.3c0.2,0.2,0.3,0.5,0.3,1H254.2z     M261.8,53.6c-0.1-0.1-0.3-0.2-0.5-0.3c-0.2-0.1-0.5-0.1-0.8-0.1c-0.2,0-0.3,0-0.5,0c-0.2,0-0.3,0.1-0.4,0.1    c-0.1,0-0.3,0.1-0.4,0.2c-0.1,0.1-0.2,0.1-0.2,0.1c0,0-0.1,0.1-0.1,0.1c0,0,0,0.1,0,0.2c0,0,0,0.1,0,0.1c0,0,0,0.1,0,0.1    c0,0,0,0,0,0.1c0,0,0,0,0.1,0c0,0,0.1,0,0.2-0.1s0.2-0.1,0.3-0.1c0.1-0.1,0.2-0.1,0.4-0.1c0.2,0,0.3-0.1,0.5-0.1    c0.2,0,0.3,0,0.4,0.1c0.1,0,0.2,0.1,0.3,0.2c0.1,0.1,0.1,0.2,0.2,0.3c0,0.1,0.1,0.3,0.1,0.4v0.3h-0.6c-0.3,0-0.6,0-0.9,0.1    c-0.3,0.1-0.5,0.1-0.7,0.3c-0.2,0.1-0.3,0.3-0.4,0.4c-0.1,0.2-0.1,0.4-0.1,0.6c0,0.2,0,0.4,0.1,0.5c0.1,0.2,0.2,0.3,0.3,0.4    c0.1,0.1,0.3,0.2,0.5,0.2c0.2,0.1,0.4,0.1,0.6,0.1c0.3,0,0.5-0.1,0.7-0.2c0.2-0.1,0.4-0.3,0.6-0.5v0.4c0,0,0,0.1,0,0.1    c0,0,0.1,0,0.1,0c0,0,0.1,0,0.2,0c0.1,0,0.1,0,0.2,0c0,0,0.1,0,0.1,0c0,0,0,0,0-0.1v-2.8c0-0.3,0-0.5-0.1-0.7    C262.1,53.9,262,53.8,261.8,53.6z M261.4,56.6c-0.2,0.2-0.4,0.4-0.5,0.5c-0.2,0.1-0.4,0.2-0.6,0.2c-0.2,0-0.4-0.1-0.6-0.2    c-0.1-0.1-0.2-0.3-0.2-0.5c0-0.1,0-0.2,0.1-0.3c0-0.1,0.1-0.2,0.2-0.3c0.1-0.1,0.2-0.1,0.4-0.2c0.2,0,0.3-0.1,0.6-0.1h0.7V56.6z     M264.9,51.3c0,0-0.1,0-0.1,0c0,0-0.1,0-0.2,0c-0.1,0-0.1,0-0.2,0c0,0-0.1,0-0.1,0c0,0,0,0-0.1,0c0,0,0,0,0,0.1v6.2c0,0,0,0,0,0.1    c0,0,0,0,0.1,0c0,0,0.1,0,0.1,0c0,0,0.1,0,0.2,0c0.1,0,0.1,0,0.2,0c0,0,0.1,0,0.1,0c0,0,0,0,0.1,0c0,0,0,0,0-0.1v-6.2    C265,51.4,265,51.4,264.9,51.3C265,51.3,265,51.3,264.9,51.3z M269.1,54c0,0,0.1,0,0.1-0.1c0,0,0-0.1,0-0.2c0-0.1,0-0.1,0-0.1    c0,0,0-0.1,0-0.1c0,0,0,0,0-0.1s0,0-0.1,0H268v-1c0,0,0,0,0-0.1c0,0,0,0-0.1,0c0,0-0.1,0-0.1,0c0,0-0.1,0-0.2,0    c-0.1,0-0.1,0-0.2,0c0,0-0.1,0-0.1,0c0,0,0,0-0.1,0c0,0,0,0,0,0.1v1h-0.6c0,0,0,0-0.1,0c0,0,0,0,0,0.1c0,0,0,0.1,0,0.1    c0,0,0,0.1,0,0.1c0,0.1,0,0.2,0,0.2c0,0,0.1,0.1,0.1,0.1h0.6v2.5c0,0.2,0,0.5,0.1,0.6c0,0.2,0.1,0.3,0.2,0.4    c0.1,0.1,0.2,0.2,0.4,0.3c0.2,0.1,0.3,0.1,0.6,0.1c0.1,0,0.1,0,0.2,0c0.1,0,0.1,0,0.2,0c0.1,0,0.1,0,0.2-0.1s0.1,0,0.1-0.1    c0,0,0-0.1,0.1-0.1c0-0.1,0-0.1,0-0.2c0-0.1,0-0.1,0-0.1c0,0,0-0.1,0-0.1c0,0,0,0,0,0c0,0,0,0,0,0c0,0-0.1,0-0.1,0    c0,0-0.1,0-0.1,0c0,0-0.1,0-0.1,0c-0.1,0-0.1,0-0.2,0c-0.2,0-0.4-0.1-0.5-0.2c-0.1-0.1-0.1-0.4-0.1-0.7V54H269.1z M274.2,53.8    c-0.1-0.2-0.3-0.3-0.5-0.4c-0.2-0.1-0.4-0.1-0.7-0.1c-0.2,0-0.5,0.1-0.7,0.2c-0.2,0.1-0.4,0.3-0.7,0.5v-2.5c0,0,0,0,0-0.1    c0,0,0,0-0.1,0s-0.1,0-0.1,0c0,0-0.1,0-0.2,0c-0.1,0-0.1,0-0.2,0c0,0-0.1,0-0.1,0s0,0-0.1,0c0,0,0,0,0,0.1v6.2c0,0,0,0,0,0.1    c0,0,0,0,0.1,0c0,0,0.1,0,0.1,0c0,0,0.1,0,0.2,0c0.1,0,0.1,0,0.2,0c0,0,0.1,0,0.1,0c0,0,0,0,0.1,0c0,0,0,0,0-0.1v-2.9    c0.2-0.3,0.4-0.5,0.6-0.6c0.2-0.1,0.4-0.2,0.6-0.2c0.1,0,0.3,0,0.4,0.1c0.1,0.1,0.2,0.1,0.3,0.2c0.1,0.1,0.1,0.2,0.2,0.4    c0,0.1,0.1,0.3,0.1,0.6v2.5c0,0,0,0,0,0.1c0,0,0,0,0.1,0c0,0,0.1,0,0.1,0c0,0,0.1,0,0.2,0c0.1,0,0.1,0,0.2,0c0,0,0.1,0,0.1,0    c0,0,0,0,0.1,0c0,0,0,0,0-0.1v-2.6c0-0.3,0-0.6-0.1-0.8C274.4,54.1,274.3,53.9,274.2,53.8z M281.2,55.2    C281.2,55.1,281.2,55.1,281.2,55.2c-0.1-0.1-0.1-0.1-0.1-0.1h-2c-0.1,0-0.1,0-0.1,0.1c0,0,0,0.1,0,0.2c0,0.1,0,0.2,0,0.2    c0,0,0.1,0.1,0.1,0.1h2c0.1,0,0.1,0,0.1-0.1c0,0,0-0.1,0-0.3c0-0.1,0-0.1,0-0.1C281.2,55.2,281.2,55.2,281.2,55.2z M288.9,57.2    C288.9,57.1,288.9,57.1,288.9,57.2c-0.1-0.1-0.1-0.1-0.1-0.1h-2.2v-5.2c0,0,0,0,0-0.1c0,0,0,0-0.1,0c0,0-0.1,0-0.1,0    c-0.1,0-0.1,0-0.2,0c-0.1,0-0.1,0-0.2,0c-0.1,0-0.1,0-0.1,0c0,0-0.1,0-0.1,0c0,0,0,0,0,0.1v5.6c0,0.1,0,0.2,0.1,0.3    c0.1,0,0.1,0.1,0.2,0.1h2.7c0,0,0.1,0,0.1,0s0,0,0.1-0.1c0,0,0-0.1,0-0.1c0,0,0-0.1,0-0.2c0-0.1,0-0.1,0-0.2    C288.9,57.2,288.9,57.2,288.9,57.2z M290.7,51.6c-0.2,0-0.3,0-0.4,0.1c-0.1,0.1-0.1,0.2-0.1,0.4c0,0.2,0,0.3,0.1,0.4    c0.1,0.1,0.2,0.1,0.4,0.1c0.2,0,0.3,0,0.4-0.1c0.1-0.1,0.1-0.2,0.1-0.4c0-0.2,0-0.3-0.1-0.4C291,51.6,290.9,51.6,290.7,51.6z     M291,53.3c0,0-0.1,0-0.1,0c0,0-0.1,0-0.2,0c-0.1,0-0.1,0-0.2,0c0,0-0.1,0-0.1,0c0,0-0.1,0-0.1,0c0,0,0,0,0,0.1v4.2c0,0,0,0,0,0.1    c0,0,0,0,0.1,0c0,0,0.1,0,0.1,0c0,0,0.1,0,0.2,0c0.1,0,0.1,0,0.2,0c0,0,0.1,0,0.1,0c0,0,0,0,0.1,0c0,0,0,0,0-0.1v-4.2    C291.1,53.4,291.1,53.4,291,53.3C291.1,53.4,291.1,53.4,291,53.3z M295.5,51.5C295.4,51.4,295.4,51.4,295.5,51.5    c-0.1-0.1-0.1-0.1-0.2-0.1c-0.1,0-0.1,0-0.2-0.1c-0.1,0-0.2,0-0.3,0c-0.2,0-0.4,0-0.6,0.1c-0.2,0.1-0.3,0.2-0.4,0.3    c-0.1,0.1-0.2,0.3-0.3,0.5c-0.1,0.2-0.1,0.5-0.1,0.8v0.4h-0.6c0,0,0,0-0.1,0c0,0,0,0,0,0.1c0,0,0,0.1,0,0.1c0,0,0,0.1,0,0.1    c0,0.1,0,0.2,0,0.2c0,0,0.1,0.1,0.1,0.1h0.6v3.7c0,0,0,0,0,0.1c0,0,0,0,0.1,0c0,0,0.1,0,0.1,0c0,0,0.1,0,0.2,0s0.1,0,0.2,0    c0,0,0.1,0,0.1,0c0,0,0.1,0,0.1,0c0,0,0,0,0-0.1V54h0.9c0,0,0.1,0,0.1-0.1c0,0,0-0.1,0-0.2c0-0.1,0-0.1,0-0.1c0,0,0-0.1,0-0.1    c0,0,0,0,0-0.1c0,0,0,0-0.1,0h-0.9v-0.5c0-0.2,0-0.3,0-0.5c0-0.1,0.1-0.2,0.1-0.3c0-0.1,0.1-0.1,0.2-0.2c0.1,0,0.2-0.1,0.3-0.1    c0.1,0,0.2,0,0.2,0c0.1,0,0.1,0,0.2,0c0,0,0.1,0,0.1,0c0,0,0.1,0,0.1,0c0,0,0,0,0,0c0,0,0,0,0,0c0,0,0-0.1,0-0.1c0,0,0-0.1,0-0.1    c0-0.1,0-0.1,0-0.2C295.5,51.5,295.5,51.5,295.5,51.5z M299.6,53.8c-0.1-0.2-0.3-0.3-0.6-0.4c-0.2-0.1-0.5-0.2-0.8-0.2    c-0.3,0-0.6,0.1-0.8,0.2s-0.5,0.3-0.6,0.5c-0.2,0.2-0.3,0.4-0.4,0.7c-0.1,0.3-0.1,0.6-0.1,1c0,0.4,0,0.7,0.1,1    c0.1,0.3,0.2,0.5,0.4,0.7c0.2,0.2,0.4,0.3,0.7,0.4c0.3,0.1,0.6,0.1,0.9,0.1c0.2,0,0.4,0,0.6,0c0.2,0,0.3-0.1,0.5-0.1    c0.1,0,0.2-0.1,0.3-0.1c0.1,0,0.1-0.1,0.2-0.1c0,0,0,0,0-0.1c0,0,0,0,0-0.1c0,0,0,0,0-0.1c0,0,0-0.1,0-0.1c0-0.1,0-0.1,0-0.1    c0,0,0-0.1,0-0.1c0,0,0,0,0,0c0,0,0,0-0.1,0c0,0-0.1,0-0.2,0c-0.1,0-0.2,0.1-0.3,0.1c-0.1,0-0.2,0.1-0.4,0.1c-0.2,0-0.3,0-0.5,0    c-0.3,0-0.5,0-0.6-0.1c-0.2-0.1-0.3-0.2-0.4-0.3c-0.1-0.1-0.2-0.3-0.2-0.5c0-0.2-0.1-0.4-0.1-0.6h2.8c0.1,0,0.1,0,0.2-0.1    c0.1-0.1,0.1-0.1,0.1-0.3v-0.1c0-0.3,0-0.5-0.1-0.8C299.9,54.2,299.8,54,299.6,53.8z M297,55.1c0-0.2,0-0.3,0.1-0.5    c0.1-0.2,0.1-0.3,0.2-0.4c0.1-0.1,0.2-0.2,0.4-0.3c0.1-0.1,0.3-0.1,0.5-0.1c0.4,0,0.7,0.1,0.8,0.3c0.2,0.2,0.3,0.5,0.3,1H297z     M311.2,51.8c0,0-0.1-0.1-0.1-0.1c0,0-0.1,0-0.1,0h-0.5c-0.1,0-0.1,0-0.2,0c-0.1,0-0.1,0-0.2,0.1c0,0-0.1,0.1-0.1,0.2    c0,0.1-0.1,0.1-0.1,0.2l-1.8,4.4h0l-1.7-4.4c0-0.1-0.1-0.2-0.1-0.2c0-0.1-0.1-0.1-0.1-0.2c-0.1,0-0.1-0.1-0.2-0.1    c-0.1,0-0.2,0-0.3,0h-0.5c-0.1,0-0.2,0-0.2,0.1c-0.1,0.1-0.1,0.1-0.1,0.3v5.6c0,0,0,0,0,0.1c0,0,0,0,0.1,0c0,0,0.1,0,0.1,0    c0.1,0,0.1,0,0.2,0c0.1,0,0.1,0,0.2,0c0.1,0,0.1,0,0.1,0c0,0,0.1,0,0.1,0c0,0,0,0,0-0.1v-5.3h0l2,5.3c0,0,0,0,0,0.1c0,0,0,0,0.1,0    c0,0,0.1,0,0.1,0c0,0,0.1,0,0.2,0c0.1,0,0.1,0,0.2,0c0,0,0.1,0,0.1,0c0,0,0.1,0,0.1,0c0,0,0,0,0-0.1l2.1-5.3h0v5.3c0,0,0,0,0,0.1    c0,0,0,0,0.1,0c0,0,0.1,0,0.1,0c0.1,0,0.1,0,0.2,0c0.1,0,0.1,0,0.2,0c0,0,0.1,0,0.1,0c0,0,0.1,0,0.1,0c0,0,0,0,0-0.1v-5.6    c0-0.1,0-0.1,0-0.2C311.3,51.9,311.3,51.8,311.2,51.8z M316.3,53.6c-0.1-0.1-0.3-0.2-0.5-0.3c-0.2-0.1-0.5-0.1-0.8-0.1    c-0.2,0-0.3,0-0.5,0c-0.2,0-0.3,0.1-0.4,0.1c-0.1,0-0.3,0.1-0.4,0.2c-0.1,0.1-0.2,0.1-0.2,0.1c0,0-0.1,0.1-0.1,0.1    c0,0,0,0.1,0,0.2c0,0,0,0.1,0,0.1c0,0,0,0.1,0,0.1c0,0,0,0,0,0.1c0,0,0,0,0.1,0c0,0,0.1,0,0.2-0.1s0.2-0.1,0.3-0.1    c0.1-0.1,0.2-0.1,0.4-0.1c0.2,0,0.3-0.1,0.5-0.1c0.2,0,0.3,0,0.4,0.1c0.1,0,0.2,0.1,0.3,0.2c0.1,0.1,0.1,0.2,0.2,0.3    c0,0.1,0.1,0.3,0.1,0.4v0.3h-0.6c-0.3,0-0.6,0-0.9,0.1c-0.3,0.1-0.5,0.1-0.7,0.3c-0.2,0.1-0.3,0.3-0.4,0.4    c-0.1,0.2-0.1,0.4-0.1,0.6c0,0.2,0,0.4,0.1,0.5c0.1,0.2,0.2,0.3,0.3,0.4c0.1,0.1,0.3,0.2,0.5,0.2c0.2,0.1,0.4,0.1,0.6,0.1    c0.3,0,0.5-0.1,0.7-0.2c0.2-0.1,0.4-0.3,0.6-0.5v0.4c0,0,0,0.1,0,0.1c0,0,0.1,0,0.1,0c0,0,0.1,0,0.2,0c0.1,0,0.1,0,0.2,0    c0,0,0.1,0,0.1,0c0,0,0,0,0-0.1v-2.8c0-0.3,0-0.5-0.1-0.7C316.5,53.9,316.4,53.8,316.3,53.6z M315.9,56.6    c-0.2,0.2-0.4,0.4-0.5,0.5c-0.2,0.1-0.4,0.2-0.6,0.2c-0.2,0-0.4-0.1-0.6-0.2c-0.1-0.1-0.2-0.3-0.2-0.5c0-0.1,0-0.2,0.1-0.3    c0-0.1,0.1-0.2,0.2-0.3c0.1-0.1,0.2-0.1,0.4-0.2c0.2,0,0.3-0.1,0.6-0.1h0.7V56.6z M323.5,54c0,0,0.1,0,0.1-0.1c0,0,0-0.1,0-0.2    c0-0.1,0-0.1,0-0.1c0,0,0-0.1,0-0.1c0,0,0,0,0-0.1c0,0,0,0-0.1,0h-1.1v-1.2c0,0,0,0,0-0.1c0,0,0,0-0.1,0c0,0-0.1,0-0.1,0    c0,0-0.1,0-0.2,0s-0.1,0-0.2,0c0,0-0.1,0-0.1,0c0,0-0.1,0-0.1,0c0,0,0,0,0,0.1v1.2h-2.1v-1c0,0,0,0,0-0.1c0,0,0,0-0.1,0    c0,0-0.1,0-0.1,0c-0.1,0-0.1,0-0.2,0c-0.1,0-0.1,0-0.2,0s-0.1,0-0.1,0c0,0,0,0-0.1,0c0,0,0,0,0,0.1v1h-0.6c0,0,0,0-0.1,0    s0,0,0,0.1c0,0,0,0.1,0,0.1c0,0,0,0.1,0,0.1c0,0.1,0,0.2,0,0.2c0,0,0.1,0.1,0.1,0.1h0.6v2.5c0,0.2,0,0.5,0.1,0.6    c0,0.2,0.1,0.3,0.2,0.4c0.1,0.1,0.2,0.2,0.4,0.3c0.2,0.1,0.3,0.1,0.6,0.1c0.1,0,0.1,0,0.2,0c0.1,0,0.1,0,0.2,0    c0.1,0,0.1,0,0.2-0.1c0,0,0.1,0,0.1-0.1c0,0,0,0,0.1-0.1c0,0,0,0,0-0.1c0,0,0-0.1,0-0.1c0,0,0-0.1,0-0.1c0-0.1,0-0.1,0-0.1    c0,0,0-0.1,0-0.1c0,0,0,0,0,0c0,0,0,0,0,0c0,0-0.1,0-0.1,0c0,0-0.1,0-0.1,0c0,0-0.1,0-0.1,0c-0.1,0-0.1,0-0.2,0    c-0.2,0-0.4-0.1-0.5-0.2c-0.1-0.1-0.1-0.4-0.1-0.7V54h2.1v2.5c0,0.2,0,0.5,0.1,0.6c0,0.2,0.1,0.3,0.2,0.4c0.1,0.1,0.2,0.2,0.4,0.3    c0.2,0.1,0.3,0.1,0.6,0.1c0.1,0,0.1,0,0.2,0c0.1,0,0.1,0,0.2,0s0.1,0,0.2-0.1c0,0,0.1,0,0.1-0.1c0,0,0-0.1,0.1-0.1    c0-0.1,0-0.1,0-0.2c0-0.1,0-0.1,0-0.1c0,0,0-0.1,0-0.1c0,0,0,0,0,0c0,0,0,0,0,0c0,0,0,0-0.1,0c0,0-0.1,0-0.1,0c0,0-0.1,0-0.2,0    c-0.1,0-0.1,0-0.2,0c-0.2,0-0.4-0.1-0.5-0.2c-0.1-0.1-0.1-0.4-0.1-0.7V54H323.5z M328.4,53.8c-0.1-0.2-0.3-0.3-0.6-0.4    c-0.2-0.1-0.5-0.2-0.8-0.2c-0.3,0-0.6,0.1-0.8,0.2c-0.2,0.1-0.5,0.3-0.6,0.5c-0.2,0.2-0.3,0.4-0.4,0.7c-0.1,0.3-0.1,0.6-0.1,1    c0,0.4,0,0.7,0.1,1c0.1,0.3,0.2,0.5,0.4,0.7c0.2,0.2,0.4,0.3,0.7,0.4c0.3,0.1,0.6,0.1,0.9,0.1c0.2,0,0.4,0,0.6,0    c0.2,0,0.3-0.1,0.5-0.1c0.1,0,0.2-0.1,0.3-0.1c0.1,0,0.1-0.1,0.2-0.1c0,0,0,0,0-0.1c0,0,0,0,0-0.1c0,0,0,0,0-0.1c0,0,0-0.1,0-0.1    c0-0.1,0-0.1,0-0.1c0,0,0-0.1,0-0.1c0,0,0,0,0,0c0,0,0,0-0.1,0c0,0-0.1,0-0.2,0c-0.1,0-0.2,0.1-0.3,0.1c-0.1,0-0.2,0.1-0.4,0.1    c-0.2,0-0.3,0-0.5,0c-0.3,0-0.5,0-0.6-0.1c-0.2-0.1-0.3-0.2-0.4-0.3c-0.1-0.1-0.2-0.3-0.2-0.5c0-0.2-0.1-0.4-0.1-0.6h2.8    c0.1,0,0.1,0,0.2-0.1c0.1-0.1,0.1-0.1,0.1-0.3v-0.1c0-0.3,0-0.5-0.1-0.8C328.6,54.2,328.5,54,328.4,53.8z M325.7,55.1    c0-0.2,0-0.3,0.1-0.5c0.1-0.2,0.1-0.3,0.2-0.4c0.1-0.1,0.2-0.2,0.4-0.3c0.1-0.1,0.3-0.1,0.5-0.1c0.4,0,0.7,0.1,0.8,0.3    c0.2,0.2,0.3,0.5,0.3,1H325.7z M333,53.5C333,53.4,333,53.4,333,53.5C333,53.4,333,53.4,333,53.5c-0.1-0.1-0.1-0.1-0.1-0.1    c0,0-0.1,0-0.2,0c-0.1,0-0.1,0-0.2,0c-0.1,0-0.1,0-0.1,0c-0.1,0-0.2,0-0.3,0c-0.1,0-0.2,0.1-0.3,0.1c-0.1,0.1-0.2,0.1-0.3,0.2    s-0.2,0.2-0.3,0.4v-0.6c0,0,0,0,0-0.1s0,0-0.1,0c0,0-0.1,0-0.1,0c0,0-0.1,0-0.2,0c-0.1,0-0.1,0-0.2,0c0,0-0.1,0-0.1,0s0,0-0.1,0    s0,0,0,0.1v4.2c0,0,0,0,0,0.1c0,0,0,0,0.1,0c0,0,0.1,0,0.1,0c0,0,0.1,0,0.2,0c0.1,0,0.1,0,0.2,0c0,0,0.1,0,0.1,0c0,0,0,0,0.1,0    c0,0,0,0,0-0.1v-2.8c0.1-0.2,0.2-0.3,0.3-0.4c0.1-0.1,0.2-0.2,0.3-0.3c0.1-0.1,0.2-0.1,0.2-0.2c0.1,0,0.2,0,0.2,0    c0.1,0,0.1,0,0.2,0c0.1,0,0.1,0,0.2,0c0,0,0.1,0,0.1,0c0,0,0.1,0,0.1,0c0,0,0,0,0.1,0s0,0,0-0.1c0,0,0-0.1,0-0.1c0,0,0-0.1,0-0.2    C333,53.7,333,53.6,333,53.5C333,53.5,333,53.5,333,53.5z M336.9,56c-0.1-0.1-0.1-0.2-0.2-0.3c-0.1-0.1-0.2-0.2-0.3-0.2    c-0.1-0.1-0.3-0.1-0.4-0.2c-0.1-0.1-0.3-0.1-0.4-0.2c-0.1,0-0.2-0.1-0.3-0.2c-0.1-0.1-0.2-0.1-0.2-0.2c-0.1-0.1-0.1-0.2-0.1-0.3    c0-0.1,0-0.2,0-0.2c0-0.1,0.1-0.1,0.1-0.2c0.1-0.1,0.1-0.1,0.2-0.1c0.1,0,0.2,0,0.3,0c0.1,0,0.3,0,0.4,0.1c0.1,0,0.2,0.1,0.3,0.1    c0.1,0,0.2,0.1,0.2,0.1s0.1,0.1,0.1,0.1c0,0,0,0,0.1,0c0,0,0,0,0-0.1c0,0,0-0.1,0-0.1c0,0,0-0.1,0-0.1c0,0,0-0.1,0-0.1    c0,0,0-0.1,0-0.1c0,0,0,0,0-0.1c0,0,0,0-0.1-0.1c0,0-0.1-0.1-0.1-0.1c-0.1,0-0.1-0.1-0.2-0.1c-0.1,0-0.2-0.1-0.3-0.1    c-0.1,0-0.2,0-0.3,0c-0.3,0-0.5,0-0.7,0.1c-0.2,0.1-0.4,0.2-0.5,0.3c-0.1,0.1-0.2,0.2-0.3,0.4c-0.1,0.2-0.1,0.3-0.1,0.5    c0,0.2,0,0.3,0.1,0.5c0.1,0.1,0.1,0.2,0.2,0.3c0.1,0.1,0.2,0.2,0.3,0.2c0.1,0.1,0.3,0.1,0.4,0.2c0.1,0.1,0.3,0.1,0.4,0.2    c0.1,0,0.2,0.1,0.3,0.2c0.1,0.1,0.2,0.1,0.2,0.2c0.1,0.1,0.1,0.2,0.1,0.3c0,0.1,0,0.2-0.1,0.3c0,0.1-0.1,0.2-0.2,0.2    c-0.1,0.1-0.2,0.1-0.3,0.1c-0.1,0-0.2,0-0.4,0c-0.2,0-0.3,0-0.5-0.1c-0.1,0-0.2-0.1-0.3-0.1c-0.1,0-0.2-0.1-0.2-0.1    c-0.1,0-0.1-0.1-0.2-0.1c0,0,0,0-0.1,0c0,0,0,0,0,0.1c0,0,0,0.1,0,0.1s0,0.1,0,0.1c0,0.1,0,0.2,0,0.2c0,0.1,0,0.1,0.1,0.1    c0,0,0.1,0.1,0.2,0.1c0.1,0,0.2,0.1,0.3,0.1c0.1,0,0.2,0.1,0.4,0.1c0.1,0,0.3,0,0.4,0c0.2,0,0.5,0,0.7-0.1    c0.2-0.1,0.4-0.1,0.5-0.3c0.1-0.1,0.3-0.3,0.3-0.4c0.1-0.2,0.1-0.4,0.1-0.6C337,56.3,337,56.2,336.9,56z"/>
	</g>
</g>
<path class="st1" d="M235.6,15.1c0-0.9,0.3-1.5,1.1-1.7c0.7-0.3,1.1-0.6,1.1-0.9c0-0.3-0.1-0.4-0.4-0.4h-7.1c-0.3,0-0.4,0.1-0.4,0.4  c0,0.4,0.4,0.7,1.1,0.9c0.7,0.3,1.1,0.8,1.1,1.7v23.3c0,0.9-0.4,1.5-1.1,1.7c-0.7,0.2-1.1,0.5-1.1,0.9c0,0.3,0.1,0.4,0.4,0.4h19.2  l1.5-5.4c0-0.1,0-0.3,0-0.4c0-0.3-0.1-0.4-0.4-0.4c-0.1,0-0.3,0.2-0.6,0.5c-0.5,0.6-1.1,1.3-2,2.3c-0.9,1-2,1.5-3.3,1.5h-9  L235.6,15.1z"/>
<path class="st1" d="M270.1,11.5l-11.9,26.9c-0.2,0.5-0.6,1-1.1,1.3c-0.3,0.2-0.5,0.3-0.7,0.4c-0.2,0.1-0.5,0.2-0.7,0.3  c-0.4,0.2-0.6,0.4-0.7,0.5c0,0.1,0,0.2,0,0.2c0,0.1,0,0.1,0,0.1c0.1,0.1,0.2,0.1,0.3,0.1h5.4c0.2,0,0.4-0.1,0.5-0.4  c0-0.1,0-0.1,0-0.1c0,0,0-0.1,0-0.2c0-0.1-0.1-0.2-0.2-0.4c-0.1-0.1-0.2-0.3-0.2-0.5c0-0.1-0.1-0.3-0.1-0.4c0-0.1,0-0.2,0-0.3  c0-0.2,0.1-0.5,0.2-0.8c0.5-1.2,1-2.4,1.5-3.6c0.5-1.2,1-2.4,1.5-3.6h12.2l3.1,7.2c0.1,0.3,0.2,0.5,0.2,0.8c0,0.1,0,0.3-0.1,0.4  c-0.1,0.2-0.2,0.4-0.4,0.6c-0.2,0.1-0.3,0.3-0.5,0.4c-0.2,0.1-0.3,0.3-0.3,0.4c0,0,0,0.1,0,0.1c0,0.1,0.1,0.2,0.3,0.3  c0.1,0.1,0.3,0.1,0.4,0.1h7.1c0.1,0,0.2,0,0.3-0.1c0-0.1,0-0.1,0-0.1c0-0.1,0-0.1,0-0.2c0-0.1-0.1-0.2-0.3-0.3  c-0.2-0.1-0.5-0.3-0.8-0.4c-0.3-0.1-0.6-0.3-1-0.5c-0.6-0.4-1-0.9-1.2-1.4c-0.7-1.6-1.6-3.7-2.6-6.1c-1-2.4-2.1-4.9-3.2-7.4  c-1.1-2.5-2.2-5-3.2-7.4c-1-2.4-1.9-4.4-2.6-6.1H270.1z M264.6,29.5c0.9-2.1,1.8-4.3,2.7-6.4c0.9-2.1,1.8-4.3,2.7-6.4l5.5,12.8  H264.6z"/>
<path class="st1" d="M291.2,12c-0.3,0-0.4,0.1-0.4,0.4c0,0.4,0.3,0.7,1.1,0.9c0.7,0.3,1.1,0.8,1.1,1.7v23.4c0,0.9-0.4,1.5-1.1,1.7  c-0.7,0.3-1.1,0.6-1.1,0.9c0,0.3,0.1,0.4,0.4,0.4h13.2c1.2,0,2.6-0.3,4-0.8c1.5-0.6,2.6-1.4,3.4-2.5c0.9-1.3,1.4-2.8,1.4-4.5  c0-1.8-0.4-3.2-1.1-4.5c-0.9-1.6-2.4-2.7-4.4-3.3c1.3-0.6,2.2-1.3,2.8-2.2c0.8-1.2,1.3-2.5,1.3-4c0-1.6-0.3-3-1-4.1  c-0.8-1.4-1.9-2.3-3.4-2.8c-1.5-0.5-2.9-0.7-4.3-0.7H291.2z M301.8,27.1c2.2,0,4,0.6,5.3,1.9c1.2,1.2,1.8,2.7,1.8,4.5  c0,1.9-0.6,3.4-1.7,4.5c-0.8,0.7-1.7,1.3-2.7,1.6c-1,0.3-2.1,0.5-3.1,0.5h-4.7V27.1H301.8z M296.6,13.7h5c2,0,3.6,0.6,4.7,1.7  c1.1,1.1,1.7,2.4,1.7,4.1c0,1.7-0.5,3.1-1.6,4.1c-1,1-2.3,1.5-4,1.7h-5.8V13.7z"/>
<path class="st1" d="M325.6,40.4c-1.7,0-3.1-0.3-4.3-0.8c-1.4-0.7-2.5-2-3.4-3.9c-0.2-0.4-0.4-0.6-0.5-0.6c-0.2,0-0.3,0.1-0.4,0.3  c-0.1,0.1-0.1,0.3-0.1,0.4c0,0.1,0,0.1,0,0.2l2,5.5c1.8,0.5,3.6,0.8,5.6,0.8c0.3,0,0.6,0,0.9,0c1.4-0.1,2.7-0.3,3.9-0.7  c1.5-0.5,2.9-1.3,4.2-2.3c2.4-2,3.7-4.5,3.7-7.5c0-1.1-0.2-2.1-0.6-3c-0.3-0.7-0.7-1.3-1.2-1.9c-0.7-0.7-1.7-1.3-3.1-1.8  c-0.8-0.3-1.7-0.4-2.6-0.6c-0.9-0.1-1.7-0.3-2.5-0.4c-0.5-0.1-1.1-0.2-1.6-0.3c-0.5-0.1-0.9-0.2-1.3-0.3c-0.6-0.2-1.2-0.4-1.8-0.8  c-0.7-0.5-1.2-1.2-1.5-2.2c-0.2-0.5-0.3-1-0.3-1.5c0-0.4,0-0.8,0.1-1.3c0.1-0.6,0.3-1.2,0.5-1.6c0.3-0.6,0.6-1.1,1-1.4  c0.4-0.4,0.9-0.8,1.6-1.1c1-0.5,2.2-0.7,3.4-0.7h0.3c1.3,0.1,2.6,0.5,3.7,1.4c1.1,0.9,2,2,2.6,3.2c0.2,0.4,0.3,0.6,0.5,0.6h0.1  c0.2,0,0.4-0.1,0.4-0.4l0.5-4.4c-2.2-1.4-4.8-2.2-8-2.3h-0.6c-2.9,0-5.2,0.9-7.1,2.6c-1.8,1.7-2.8,3.8-2.8,6.4  c0,1.3,0.3,2.6,0.9,3.7c0.6,1.1,1.5,2,2.8,2.6c1.4,0.7,2.9,1.1,4.4,1.3c1.5,0.2,3.1,0.5,4.5,0.9c0.8,0.2,1.4,0.5,1.9,0.9  c1.2,0.8,1.8,2.1,1.8,3.6v0.2c0,1.5-0.3,2.8-1,3.8c-0.6,1-1.5,1.8-2.5,2.3c-1,0.5-2.1,0.8-3.3,0.9C326.3,40.4,326,40.4,325.6,40.4  L325.6,40.4z"/>
<path class="st2" d="M71.4,39.7c-2.1,19.6-19.6,33.7-39.2,31.7c-0.7-0.1-1.4-0.2-2.1-0.3c34-5.1,33.6-34.9,33.6-34.9  c-6.6,28.4-32.3,30.7-36,30.7c-1.7-15.1,5.3-20.7,14.5-25.4c9.2-4.7,12.6-8.2,13.4-16.1C57,10.1,43.5,2.1,40.8,0.7  C59.8,3.3,73.4,20.6,71.4,39.7z"/>
<path class="st3" d="M103.8,42.1c1-0.1,2-0.3,3-0.5c2-0.5,4.1-0.8,6.2-0.9v-8.2c0-0.9,0.3-1.5,1.1-1.7c0.7-0.3,1.1-0.6,1.1-0.9  c0-0.3-0.1-0.4-0.4-0.4h-8.4c-0.3,0-0.4,0.1-0.4,0.4c0,0.3,0.4,0.6,1.1,0.9c0.7,0.3,1.3,0.5,1.7,0.7c0.4,0.2,0.6,0.6,0.7,1v3.9  c-0.9,1.5-2,2.6-3.3,3.1c-1.1,0.4-2.4,0.6-4,0.6c-0.3,0-0.6,0-1,0c-3.4-0.2-6.3-1.7-8.6-4.5c-2.3-2.8-3.4-5.8-3.4-8.8  c0-4.7,1.2-8.2,3.7-10.4c2.4-2.2,5.2-3.3,8.3-3.3c2.2,0,4,0.3,5.4,1c1.4,0.6,2.5,1.9,3.4,3.9c0.2,0.4,0.4,0.6,0.5,0.6h0.1  c0.2,0,0.4-0.1,0.4-0.4l0.5-4.4c-1.6-1.1-3.4-1.8-5.2-2.1c-1.8-0.4-3.5-0.5-5.1-0.5c-4.5,0-8.3,1.4-11.6,4.3  c-3.2,2.9-4.8,6.6-4.8,11.4c0,4.8,1.7,8.6,5,11.4c3.3,2.7,7.1,4.1,11.4,4.1C101.9,42.3,102.9,42.2,103.8,42.1z"/>
<path class="st3" d="M153.8,13.4c0.7-0.3,1.1-0.6,1.1-0.9c0-0.3-0.1-0.4-0.4-0.4h-5.9l-11.1,23.6L126,12h-5.6  c-0.3,0-0.4,0.1-0.4,0.4c0,0.4,0.3,0.7,1.1,0.9c0.7,0.3,1.1,0.8,1.1,1.7v23.3c0,0.9-0.4,1.5-1.1,1.7c-0.7,0.2-1.1,0.5-1.1,0.9  c0,0.3,0.1,0.4,0.4,0.4h5.3c0.3,0,0.4-0.1,0.4-0.4c0-0.3-0.4-0.6-1.1-0.9c-0.7-0.2-1.1-0.8-1.1-1.7V16.9l12,25.2h0.8L149,15.9v22.5  c0,0.9-0.4,1.5-1.1,1.7c-0.7,0.2-1.1,0.5-1.1,0.9c0,0.3,0.1,0.4,0.4,0.4h7.1c0.3,0,0.4-0.1,0.4-0.4c0-0.3-0.4-0.6-1.1-0.9  c-0.7-0.2-1.1-0.8-1.1-1.7V15.1C152.8,14.2,153.1,13.6,153.8,13.4z"/>
<path class="st3" d="M175.2,27.5c1.1-0.1,2.3-0.4,3.6-0.9c1.2-0.5,2.2-1.3,2.9-2.3c0.9-1.3,1.3-2.7,1.4-4.3c0-1.7-0.3-3.1-1-4.3  c-0.9-1.5-2.1-2.5-3.6-3c-1.6-0.5-3.1-0.8-4.5-0.8h-12.4c-0.3,0-0.4,0.1-0.4,0.4c0,0.4,0.3,0.7,1.1,0.9c0.7,0.3,1.1,0.8,1.1,1.7  v23.3c0,0.9-0.4,1.5-1.1,1.7c-0.7,0.2-1.1,0.5-1.1,0.9c0,0.3,0.1,0.4,0.4,0.4h7.1c0.3,0,0.4-0.1,0.4-0.4c0-0.3-0.4-0.6-1.1-0.9  c-0.7-0.2-1.1-0.8-1.1-1.7V27.5h3.4c0.8,1,1.7,2.2,2.9,3.8c1.1,1.6,2.3,3.1,3.4,4.6c1.1,1.5,2.1,2.8,2.9,3.9  c0.8,1.1,1.3,1.6,1.4,1.6h5.6c0.3,0,0.4-0.1,0.4-0.4V41c0-0.3-0.2-0.4-0.6-0.4c-0.6-0.1-1.1-0.2-1.5-0.6L175.2,27.5z M172.3,13.8  c2.1,0,3.8,0.6,5,1.8c1.2,1.1,1.7,2.6,1.7,4.3c0,1.8-0.6,3.2-1.7,4.3c-0.7,0.7-1.6,1.2-2.6,1.5c-1,0.3-2,0.4-2.9,0.4H167V13.8H172.3  z"/>
<path class="st3" d="M197.2,15.1c0-0.9,0.3-1.5,1.1-1.7c0.7-0.3,1.1-0.6,1.1-0.9c0-0.3-0.1-0.4-0.4-0.4h-7.1c-0.3,0-0.4,0.1-0.4,0.4  c0,0.4,0.4,0.7,1.1,0.9c0.7,0.3,1.1,0.8,1.1,1.7v23.3c0,0.9-0.4,1.5-1.1,1.7c-0.7,0.2-1.1,0.5-1.1,0.9c0,0.3,0.1,0.4,0.4,0.4H211  l1.5-5.4c0-0.1,0-0.3,0-0.4c0-0.3-0.1-0.4-0.4-0.4c-0.1,0-0.3,0.2-0.6,0.5c-0.5,0.6-1.1,1.3-2,2.3c-0.9,1-2,1.5-3.3,1.5h-9  L197.2,15.1z"/>
<path class="st4" d="M38.5,33.9c-6.1,1.3-13.6,0.3-19.9-1.2c0,0,0,0,0,0c-0.6-0.1-1.2-0.3-1.7-0.4c0,0,0,0-0.1,0  c-0.6-0.1-1.1-0.3-1.6-0.4c0,0-0.1,0-0.1,0c-0.5-0.1-1-0.3-1.5-0.4c0,0-0.1,0-0.1,0c-0.2-0.1-0.5-0.1-0.7-0.2c0,0,0,0,0,0  c-0.2-0.1-0.5-0.1-0.7-0.2c0,0-0.1,0-0.1,0c-0.2-0.1-0.4-0.1-0.7-0.2c0,0,0,0,0,0c-0.2-0.1-0.4-0.1-0.6-0.2c-0.1,0-0.1,0-0.2,0  c-0.2-0.1-0.4-0.1-0.6-0.2c-3.2-1-5.6-1.6-5.6-1.6c-0.3-0.1-0.6-0.2-0.9-0.2c-0.1,0-0.3-0.1-0.4-0.1c-0.1,0-0.2-0.1-0.4-0.1  c-0.4-0.1-0.7-0.2-1.1-0.2C4.6,14.4,15.2,4,28.3,1c4.3-0.8,10.1,0.5,14.4,3.6C51.9,11.8,52.3,28,38.5,33.9z M44.6,25.2l-10-14.5  c-1.2-0.4-2.3-0.5-3.2-0.4l11.7,17.1C44.2,26.8,44.4,26.2,44.6,25.2z M38.6,31c0.7-0.1,1.5-0.5,1.8-1.5l-12.4-18  c-0.7,0.5-1.3,1-1.8,1.6L38.6,31z M32.5,32.4c1-0.1,1.9-0.2,2.7-0.4L24.3,16.2c-0.4,0.9-0.8,1.8-1,2.7L32.5,32.4z M22.2,27.7  l2.3,3.3c1.2,0.6,2.4,1,3.7,1.2l-5.9-8.6C22.2,25.3,22.2,26.7,22.2,27.7z M12.7,28.8c2.3,0.7,4.9,1.4,7.6,2.1c0,0,0,0,0-0.1  c-2.1-20.5,9.7-25.5,9.7-25.5C17.7,6,13.9,20.3,12.7,28.8z M36.5,6.4c-6.2-2.1-9.3,3.8-9.3,3.8c3.1-2.3,5.2-1.6,6.9-1.1  c5.6,2.2,7.7-3.3,7.7-3.3C41.2,6,39.2,7.3,36.5,6.4z M41.8,10.9c-0.6,0.4-1.4,0.7-2.3,0.9l6.4,9.5c0.8-1.2,0.8-2.4,0.9-3.1  L41.8,10.9z M14.5,39.1c0.2,0,0.3,0.1,0.5,0.1c0.4,0.1,0.8,0.2,1.1,0.3c0.1,0,0.2,0.1,0.4,0.1c0.4,0.1,0.8,0.2,1.2,0.3  c0.1,0,0.2,0.1,0.3,0.1c0.4,0.1,0.8,0.2,1.2,0.3c0.1,0,0.2,0,0.2,0.1c0.4,0.1,0.8,0.2,1.2,0.3c0.1,0,0.1,0,0.2,0  c0.4,0.1,0.8,0.2,1.3,0.3c0,0,0.1,0,0.1,0c0.4,0.1,0.9,0.2,1.3,0.3c0,0,0.1,0,0.1,0c0.4,0.1,0.9,0.2,1.3,0.2c0.2,0,0.5,0,0.7,0.1  c0.2,0,0.5,0,0.7,0c-5.1,5.6-8.1,14.4-1.3,27.8c-7.6-2.5-14-7.5-18.3-13.9c6.7-2.8,10.2-8,11.9-13c-2.3-0.6-4.6-1.3-6.9-2  c-1,6.8-3.4,11.3-5.7,14C2.6,49,0.6,42.3,0.7,35.2l0,0c4.4,1,8.8,2.4,13.1,3.6C14,38.9,14.3,39,14.5,39.1z M7.1,39.6  c-0.7-0.3-2.1-0.8-3.8-1.3l5.3,7.8C9,45.2,9.2,44.2,9.4,43L7.1,39.6z"/>
</svg>